<svg width="19" height="19" viewBox="0 0 19 19" fill="none" xmlns="http://www.w3.org/2000/svg">
<path d="M5.32852 17.3832C5.02102 17.3832 4.76602 17.1282 4.76602 16.8207V11.5707C4.76602 11.2632 5.02102 11.0082 5.32852 11.0082C5.63602 11.0082 5.89102 11.2632 5.89102 11.5707V16.8207C5.89102 17.1282 5.63602 17.3832 5.32852 17.3832Z" fill="#ffffff"/>
<path d="M5.32852 4.6332C5.02102 4.6332 4.76602 4.3782 4.76602 4.0707V1.8207C4.76602 1.5132 5.02102 1.2582 5.32852 1.2582C5.63602 1.2582 5.89102 1.5132 5.89102 1.8207V4.0707C5.89102 4.3782 5.63602 4.6332 5.32852 4.6332Z" fill="#ffffff"/>
<path d="M13.5785 17.3832C13.271 17.3832 13.016 17.1282 13.016 16.8207V14.5707C13.016 14.2632 13.271 14.0082 13.5785 14.0082C13.886 14.0082 14.141 14.2632 14.141 14.5707V16.8207C14.141 17.1282 13.886 17.3832 13.5785 17.3832Z" fill="#ffffff"/>
<path d="M13.5785 7.6332C13.271 7.6332 13.016 7.3782 13.016 7.0707V1.8207C13.016 1.5132 13.271 1.2582 13.5785 1.2582C13.886 1.2582 14.141 1.5132 14.141 1.8207V7.0707C14.141 7.3782 13.886 7.6332 13.5785 7.6332Z" fill="#ffffff"/>
<path d="M6.07852 12.1332H4.57852C3.28852 12.1332 2.51602 11.3607 2.51602 10.0707V5.5707C2.51602 4.2807 3.28852 3.5082 4.57852 3.5082H6.07852C7.36852 3.5082 8.14102 4.2807 8.14102 5.5707V10.0707C8.14102 11.3607 7.36852 12.1332 6.07852 12.1332ZM4.57852 4.6332C3.91102 4.6332 3.64102 4.9032 3.64102 5.5707V10.0707C3.64102 10.7382 3.91102 11.0082 4.57852 11.0082H6.07852C6.74602 11.0082 7.01602 10.7382 7.01602 10.0707V5.5707C7.01602 4.9032 6.74602 4.6332 6.07852 4.6332H4.57852Z" fill="#ffffff"/>
<path d="M14.3285 15.1332H12.8285C11.5385 15.1332 10.766 14.3607 10.766 13.0707V8.5707C10.766 7.2807 11.5385 6.5082 12.8285 6.5082H14.3285C15.6185 6.5082 16.391 7.2807 16.391 8.5707V13.0707C16.391 14.3607 15.6185 15.1332 14.3285 15.1332ZM12.8285 7.6332C12.161 7.6332 11.891 7.9032 11.891 8.5707V13.0707C11.891 13.7382 12.161 14.0082 12.8285 14.0082H14.3285C14.996 14.0082 15.266 13.7382 15.266 13.0707V8.5707C15.266 7.9032 14.996 7.6332 14.3285 7.6332H12.8285Z" fill="#ffffff"/>
</svg>
