<svg width="15" height="15" viewBox="0 0 15 15" fill="none" xmlns="http://www.w3.org/2000/svg">
<path d="M5.73057 4.3747C5.61417 4.4918 5.54883 4.65021 5.54883 4.81532C5.54883 4.98044 5.61417 5.13884 5.73057 5.25595L7.94307 7.4997L5.73057 9.7122C5.61417 9.8293 5.54883 9.98771 5.54883 10.1528C5.54883 10.3179 5.61417 10.4763 5.73057 10.5934C5.78868 10.652 5.8578 10.6985 5.93396 10.7303C6.01012 10.762 6.09182 10.7783 6.17432 10.7783C6.25683 10.7783 6.33852 10.762 6.41468 10.7303C6.49085 10.6985 6.55997 10.652 6.61807 10.5934L9.26807 7.94345C9.32665 7.88534 9.37315 7.81622 9.40488 7.74006C9.43661 7.66389 9.45295 7.5822 9.45295 7.4997C9.45295 7.41719 9.43661 7.3355 9.40488 7.25934C9.37315 7.18317 9.32665 7.11405 9.26807 7.05595L6.61807 4.3747C6.55997 4.31612 6.49085 4.26962 6.41468 4.23789C6.33852 4.20616 6.25683 4.18982 6.17432 4.18982C6.09182 4.18982 6.01012 4.20616 5.93396 4.23789C5.8578 4.26962 5.78867 4.31612 5.73057 4.3747Z" fill="#76737D"/>
</svg>
