<svg width="25" height="24" viewBox="0 0 25 24" fill="none" xmlns="http://www.w3.org/2000/svg">
<path d="M14.3474 12.0002L18.6474 7.71019C18.8357 7.52188 18.9415 7.26649 18.9415 7.00019C18.9415 6.73388 18.8357 6.47849 18.6474 6.29019C18.4591 6.10188 18.2037 5.99609 17.9374 5.99609C17.6711 5.99609 17.4157 6.10188 17.2274 6.29019L12.9374 10.5902L8.64744 6.29019C8.45914 6.10188 8.20374 5.99609 7.93744 5.99609C7.67114 5.99609 7.41574 6.10188 7.22744 6.29019C7.03914 6.47849 6.93335 6.73388 6.93335 7.00019C6.93335 7.26649 7.03914 7.52188 7.22744 7.71019L11.5274 12.0002L7.22744 16.2902C7.13371 16.3831 7.05932 16.4937 7.00855 16.6156C6.95778 16.7375 6.93164 16.8682 6.93164 17.0002C6.93164 17.1322 6.95778 17.2629 7.00855 17.3848C7.05932 17.5066 7.13371 17.6172 7.22744 17.7102C7.3204 17.8039 7.431 17.8783 7.55286 17.9291C7.67472 17.9798 7.80543 18.006 7.93744 18.006C8.06945 18.006 8.20016 17.9798 8.32202 17.9291C8.44388 17.8783 8.55448 17.8039 8.64744 17.7102L12.9374 13.4102L17.2274 17.7102C17.3204 17.8039 17.431 17.8783 17.5529 17.9291C17.6747 17.9798 17.8054 18.006 17.9374 18.006C18.0695 18.006 18.2002 17.9798 18.322 17.9291C18.4439 17.8783 18.5545 17.8039 18.6474 17.7102C18.7412 17.6172 18.8156 17.5066 18.8663 17.3848C18.9171 17.2629 18.9432 17.1322 18.9432 17.0002C18.9432 16.8682 18.9171 16.7375 18.8663 16.6156C18.8156 16.4937 18.7412 16.3831 18.6474 16.2902L14.3474 12.0002Z" fill="#76737D"/>
</svg>
