<svg width="128" height="128" viewBox="0 0 128 128" fill="none" xmlns="http://www.w3.org/2000/svg">
<circle cx="64" cy="64" r="64" fill="#2775CA"/>
<path d="M52 108.72C52 110.22 50.8 111.07 49.4 110.62C30 104.42 16 86.3204 16 64.8704C16 43.4704 30 25.3204 49.4 19.1204C50.85 18.6704 52 19.5204 52 21.0204V24.7704C52 25.7704 51.25 26.9204 50.3 27.2704C34.95 32.9204 24 47.6704 24 64.8704C24 82.1204 34.95 96.8204 50.3 102.42C51.25 102.77 52 103.92 52 104.92V108.72Z" fill="white"/>
<path d="M68 94.65C68 95.75 67.1 96.65 66 96.65H62C60.9 96.65 60 95.75 60 94.65V88.35C51.25 87.15 47 82.3 45.85 75.6C45.65 74.45 46.55 73.45 47.7 73.45H52.25C53.2 73.45 54 74.15 54.2 75.05C55.05 79 57.35 82.05 64.35 82.05C69.5 82.05 73.2 79.15 73.2 74.85C73.2 70.55 71.05 68.9 63.45 67.65C52.25 66.15 46.95 62.75 46.95 54C46.95 47.25 52.1 41.95 60 40.85V34.65C60 33.55 60.9 32.65 62 32.65H66C67.1 32.65 68 33.55 68 34.65V41C74.45 42.15 78.55 45.8 79.9 51.9C80.15 53.05 79.25 54.1 78.05 54.1H73.85C72.95 54.1 72.2 53.5 71.95 52.65C70.8 48.8 68.05 47.1 63.25 47.1C57.95 47.1 55.2 49.65 55.2 53.25C55.2 57.05 56.75 58.95 64.9 60.1C75.9 61.6 81.6 64.75 81.6 74.1C81.6 81.2 76.3 86.95 68.05 88.25V94.65H68Z" fill="white"/>
<path d="M78.6 110.4C77.15 110.85 76 110 76 108.5V104.75C76 103.65 76.65 102.6 77.7 102.25C93 96.65 104 81.9 104 64.7C104 47.45 93.05 32.75 77.7 27.15C76.75 26.8 76 25.65 76 24.65V20.9C76 19.4 77.2 18.55 78.6 19C98 25.1 112 43.25 112 64.65C112 86.1 98 104.2 78.6 110.4Z" fill="white"/>
</svg>
